<svg version="1.1" id="Layer_1" xmlns="http://www.w3.org/2000/svg" xmlns:xlink="http://www.w3.org/1999/xlink" viewBox="0 0 451.319 451.319" xml:space="preserve" fill="#000000"><g id="SVGRepo_bgCarrier" stroke-width="0"></g><g id="SVGRepo_tracerCarrier" stroke-linecap="round" stroke-linejoin="round"></g><g id="SVGRepo_iconCarrier"> <circle style="fill:#45B39C;" cx="225.659" cy="225.638" r="225.638"></circle> <path style="opacity:0.1;enable-background:new ;" d="M129.188,96.37v258.566l96.38,96.38c0.031,0,0.061,0.002,0.092,0.002 c108.013,0,198.249-75.908,220.403-177.276L268.391,96.37C268.391,96.37,129.188,96.37,129.188,96.37z M179.306,158.754l0.01,0.014 l-0.01,0.006V158.754z M179.306,178.551l-0.013-0.013l0.012-0.011h0l0.012,0.011L179.306,178.551z M179.333,158.756l-0.004,0.002 l0.004-0.005V158.756z"></path> <polygon style="fill:#FFFFFF;" points="268.371,96.378 129.169,96.378 129.169,354.944 322.152,354.944 322.152,150.159 "></polygon> <polygon style="fill:#E1E6E9;" points="268.371,150.159 322.152,150.159 268.371,96.378 "></polygon> <polygon style="fill:#EBF0F3;" points="322.152,150.159 268.371,150.159 322.152,187.438 "></polygon> <g> <path style="fill:#F6C358;" d="M179.284,162.098l0.023,0.015l0,0v-0.02l0.01,0.014l0.012-0.008v0l0.004-0.005v0.003l8.473-5.663 l0.001,0v-9.385c-0.641,0.441-1.256,0.92-1.834,1.441c-3.718,3.361-7.365,2.785-7.365,2.785c-2.224,0.059-5.393-2.22-6.744-3.281 c-0.344-0.27-0.697-0.528-1.059-0.773v9.212l0,0L179.284,162.098z"></path> <polygon style="fill:#F6C358;" points="179.306,158.775 179.306,158.775 179.306,158.774 179.306,158.774 176.565,162.508 176.565,162.508 "></polygon> </g> <path style="fill:#64798A;" d="M193.474,137.047c0,0,0.49-3.308,2.184-6.026c0.411-0.66,0.636-1.418,0.636-2.196v-8.551 c0,0-0.534-4.193-4.65-5.184c0,0,1.677-3.571-2.668-4.415h-16.009l0,0c-5.852,0-10.597,4.744-10.597,10.597v6.282 c0,1.361,0.456,2.685,1.308,3.747c0.671,0.835,1.367,2.148,1.475,4.048"></path> <path style="fill:#FCD462;" d="M178.608,153.056c0,0,3.647,0.576,7.365-2.785c0.578-0.522,1.193-1,1.834-1.441 c0.063-0.044,0.125-0.089,0.189-0.132c1.646-1.106,4.809-4.171,5.479-11.651v-9.911c0,0-0.381-3.507-4.117-4.879l-5.552-1.949 c-1.035-0.363-2.165-0.349-3.191,0.04c-1.15,0.437-2.669,1.002-3.625,1.308c-0.458,0.147-0.936,0.22-1.417,0.22h-5.275 c0,0-4.117,0.534-5.146,5.145v8.327v1.927c0,0,0.179,8.1,5.542,11.65c0.038,0.025,0.073,0.052,0.111,0.077 c0.362,0.244,0.715,0.503,1.059,0.773C173.215,150.836,176.384,153.115,178.608,153.056z"></path> <g> <polygon style="fill:#D5D6DB;" points="182.048,161.783 180.312,164.275 181.915,174.376 185.931,167.073 "></polygon> <polygon style="fill:#D5D6DB;" points="176.83,174.997 178.587,163.924 176.676,161.181 172.42,166.978 "></polygon> <polygon style="fill:#D5D6DB;" points="176.565,162.508 176.449,162.666 179.306,158.789 179.306,158.775 179.306,158.775 "></polygon> </g> <g> <polygon style="fill:#E56353;" points="182.096,173.431 180.734,164.846 182.209,162.728 182.209,162.728 179.306,158.774 179.306,158.775 179.306,158.789 176.449,162.666 176.417,162.709 176.417,162.709 176.417,162.709 177.905,164.846 176.537,173.469 176.537,173.469 179.306,178.504 182.096,173.432 "></polygon> <polygon style="fill:#E56353;" points="179.323,178.535 179.587,178.27 179.315,178.52 "></polygon> <polygon style="fill:#E56353;" points="179.297,178.52 179.025,178.27 179.289,178.535 "></polygon> <polygon style="fill:#E56353;" points="179.294,178.539 179.306,178.552 179.319,178.539 179.306,178.528 179.306,178.528 179.306,178.528 "></polygon> <polygon style="fill:#E56353;" points="179.333,158.754 179.328,158.759 179.333,158.756 "></polygon> <polygon style="fill:#E56353;" points="179.306,158.754 179.306,158.774 179.316,158.767 "></polygon> </g> <g> <polygon style="fill:#E1E6E9;" points="179.333,158.756 179.328,158.759 179.328,158.759 179.316,158.767 179.306,158.774 179.306,158.774 179.306,158.774 179.306,158.774 179.306,158.774 182.209,162.728 185.51,167.224 192.38,154.734 187.807,153.094 187.806,153.094 "></polygon> <polygon style="fill:#E1E6E9;" points="176.417,162.709 176.417,162.709 176.565,162.508 179.306,158.774 179.306,158.774 179.306,158.774 179.284,158.759 170.806,153.094 170.806,153.094 166.232,154.734 173.102,167.224 "></polygon> </g> <g> <path style="fill:#3A556A;" d="M179.323,178.535l0.009,0.017h3.576h27.313c1.955,0,3.443-1.754,3.124-3.683l-1.539-9.292 c-0.415-2.506-2.151-4.593-4.54-5.457l-14.886-5.386"></path> <ellipse transform="matrix(-0.7203 -0.6936 0.6936 -0.7203 184.6395 431.5238)" style="fill:#3A556A;" cx="179.316" cy="178.538" rx="0.015" ry="0.01"></ellipse> </g> <g> <polygon style="fill:#2F4859;" points="182.096,173.432 179.306,178.504 179.306,178.504 179.315,178.52 179.587,178.27 193.066,165.94 191.389,162.738 196.334,162.662 192.38,154.734 185.51,167.224 "></polygon> <polygon style="fill:#2F4859;" points="179.294,178.539 179.306,178.528 179.306,178.528 179.297,178.52 179.289,178.535 "></polygon> </g> <path style="fill:#3A556A;" d="M179.294,178.539l-0.004-0.004l-13.057-23.801l-14.886,5.386c-2.389,0.864-4.125,2.951-4.54,5.457 l-1.539,9.292c-0.319,1.929,1.169,3.683,3.124,3.683h27.339h2.111h0.026h1.438h0L179.294,178.539z"></path> <polygon style="fill:#2F4859;" points="179.323,178.535 179.315,178.52 179.306,178.504 179.306,178.504 176.537,173.469 173.102,167.224 166.232,154.734 162.279,162.662 167.223,162.738 165.546,165.94 179.025,178.27 179.297,178.52 179.306,178.528 179.306,178.528 179.319,178.539 179.333,178.552 "></polygon> <g> <rect x="144.938" y="199.629" style="fill:#EBF0F3;" width="161.423" height="4.7"></rect> <rect x="144.938" y="220.175" style="fill:#EBF0F3;" width="161.423" height="4.7"></rect> <rect x="144.938" y="240.742" style="fill:#EBF0F3;" width="161.423" height="4.7"></rect> <rect x="144.938" y="261.274" style="fill:#EBF0F3;" width="161.423" height="4.7"></rect> <rect x="144.938" y="281.805" style="fill:#EBF0F3;" width="161.423" height="4.7"></rect> <rect x="144.938" y="302.336" style="fill:#EBF0F3;" width="161.423" height="4.7"></rect> <rect x="144.938" y="322.918" style="fill:#EBF0F3;" width="131.779" height="4.7"></rect> </g> </g></svg>