<?xml version="1.0" encoding="iso-8859-1"?>
<!-- Uploaded to: SVG Repo, www.svgrepo.com, Generator: SVG Repo Mixer Tools -->
<svg height="800px" width="800px" version="1.1" id="Layer_1" xmlns="http://www.w3.org/2000/svg" xmlns:xlink="http://www.w3.org/1999/xlink" 
	 viewBox="0 0 503.467 503.467" xml:space="preserve">
<g transform="translate(1 13)">
	<g>
		<path style="fill:#FF7474;" d="M54.467,161.933V332.6c0,9.387-7.68,17.067-17.067,17.067H20.333
			c-9.387,0-17.067-7.68-17.067-17.067V161.933c0-9.387,7.68-17.067,17.067-17.067H37.4
			C46.787,144.867,54.467,152.547,54.467,161.933L54.467,161.933z"/>
		<path style="fill:#FF7474;" d="M395.8,349.667v17.067c0,9.387-7.68,17.067-17.067,17.067h-17.067
			c-9.387,0-17.067-7.68-17.067-17.067v-102.4v-51.2v-102.4c0-9.387,7.68-17.067,17.067-17.067h17.067
			c9.387,0,17.067,7.68,17.067,17.067V127.8V349.667z"/>
		<path style="fill:#FF7474;" d="M447,315.533v34.133c0,9.387-7.68,17.067-17.067,17.067h-17.067
			c-9.387,0-17.067-7.68-17.067-17.067V127.8c0-9.387,7.68-17.067,17.067-17.067h17.067c9.387,0,17.067,7.68,17.067,17.067v17.067
			V315.533z"/>
		<path style="fill:#FF7474;" d="M156.867,264.333v102.4c0,9.387-7.68,17.067-17.067,17.067h-17.067
			c-9.387,0-17.067-7.68-17.067-17.067v-17.067V127.8v-17.067c0-9.387,7.68-17.067,17.067-17.067H139.8
			c9.387,0,17.067,7.68,17.067,17.067v102.4V264.333z"/>
		<path style="fill:#FF7474;" d="M105.667,127.8v221.867c0,9.387-7.68,17.067-17.067,17.067H71.533
			c-9.387,0-17.067-7.68-17.067-17.067V332.6V161.933V127.8c0-9.387,7.68-17.067,17.067-17.067H88.6
			C97.987,110.733,105.667,118.413,105.667,127.8"/>
		<path style="fill:#FF7474;" d="M498.2,144.867v170.667c0,9.387-7.68,17.067-17.067,17.067h-17.067
			c-9.387,0-17.067-7.68-17.067-17.067V144.867c0-9.387,7.68-17.067,17.067-17.067h17.067C490.52,127.8,498.2,135.48,498.2,144.867"
			/>
	</g>
	<polygon style="fill:#AAB1BA;" points="156.867,264.333 344.6,264.333 344.6,213.133 156.867,213.133 	"/>
</g>
<path style="fill:#51565F;" d="M379.733,401.067h-17.067c-11.947,0-21.333-9.387-21.333-21.333v-256
	c0-11.947,9.387-21.333,21.333-21.333h17.067c11.947,0,21.333,9.387,21.333,21.333l0,0c3.413-2.56,7.68-4.267,12.8-4.267h17.067
	c11.947,0,21.333,9.387,21.333,21.333l0,0c3.413-2.56,7.68-4.267,12.8-4.267h17.067c11.947,0,21.333,9.387,21.333,21.333v170.667
	c0,11.947-9.387,21.333-21.333,21.333h-17.067c-5.12,0-9.387-1.707-12.8-4.267v17.067c0,11.947-9.387,21.333-21.333,21.333h-17.067
	c-5.12,0-9.387-1.707-12.8-4.267l0,0C401.067,391.68,391.68,401.067,379.733,401.067z M362.667,110.933
	c-6.827,0-12.8,5.973-12.8,12.8v256c0,6.827,5.973,12.8,12.8,12.8h17.067c6.827,0,12.8-5.973,12.8-12.8v-256
	c0-6.827-5.973-12.8-12.8-12.8H362.667z M413.867,128c-6.827,0-12.8,5.973-12.8,12.8v221.867c0,6.827,5.973,12.8,12.8,12.8h17.067
	c6.827,0,12.8-5.973,12.8-12.8V140.8c0-6.827-5.973-12.8-12.8-12.8H413.867z M465.067,145.067c-6.827,0-12.8,5.973-12.8,12.8
	v170.667c0,6.827,5.973,12.8,12.8,12.8h17.067c6.827,0,12.8-5.973,12.8-12.8V157.867c0-6.827-5.973-12.8-12.8-12.8H465.067z
	 M140.8,401.067h-17.067c-11.947,0-21.333-9.387-21.333-21.333l0,0c-3.413,2.56-7.68,4.267-12.8,4.267H72.533
	c-11.947,0-21.333-9.387-21.333-21.333l0,0c-3.413,2.56-7.68,4.267-12.8,4.267H21.333C9.387,366.933,0,357.547,0,345.6V174.933
	C0,162.987,9.387,153.6,21.333,153.6H38.4c5.12,0,9.387,1.707,12.8,4.267V140.8c0-11.947,9.387-21.333,21.333-21.333H89.6
	c5.12,0,9.387,1.707,12.8,4.267l0,0c0-11.947,9.387-21.333,21.333-21.333H140.8c11.947,0,21.333,9.387,21.333,21.333v256
	C162.133,391.68,152.747,401.067,140.8,401.067z M110.933,362.667v17.067c0,6.827,5.973,12.8,12.8,12.8H140.8
	c6.827,0,12.8-5.973,12.8-12.8v-256c0-6.827-5.973-12.8-12.8-12.8h-17.067c-6.827,0-12.8,5.973-12.8,12.8V362.667z M59.733,345.6
	v17.067c0,6.827,5.973,12.8,12.8,12.8H89.6c6.827,0,12.8-5.973,12.8-12.8V140.8c0-6.827-5.973-12.8-12.8-12.8H72.533
	c-6.827,0-12.8,5.973-12.8,12.8V345.6z M21.333,162.133c-6.827,0-12.8,5.973-12.8,12.8V345.6c0,6.827,5.973,12.8,12.8,12.8H38.4
	c6.827,0,12.8-5.973,12.8-12.8V174.933c0-6.827-5.973-12.8-12.8-12.8H21.333z M311.467,281.6H192c-2.56,0-4.267-1.707-4.267-4.267
	s1.707-4.267,4.267-4.267h119.467c2.56,0,4.267,1.707,4.267,4.267S314.027,281.6,311.467,281.6z M311.467,230.4H192
	c-2.56,0-4.267-1.707-4.267-4.267s1.707-4.267,4.267-4.267h119.467c2.56,0,4.267,1.707,4.267,4.267S314.027,230.4,311.467,230.4z"/>
</svg>