<svg viewBox="0 0 64 64" fill="none" xmlns="http://www.w3.org/2000/svg"><g id="SVGRepo_bgCarrier" stroke-width="0"></g><g id="SVGRepo_tracerCarrier" stroke-linecap="round" stroke-linejoin="round"></g><g id="SVGRepo_iconCarrier"> <path fill-rule="evenodd" clip-rule="evenodd" d="M15.8118 23.9999L32.8467 16.7971L44.8639 45.1579L27.7538 52.4857L15.8118 23.9999Z" fill="#2A2941"></path> <path fill-rule="evenodd" clip-rule="evenodd" d="M18.0195 19.7982L35.0795 12.5955L47.0466 40.9312L29.9364 48.259L18.0195 19.7982Z" fill="white"></path> <path fill-rule="evenodd" clip-rule="evenodd" d="M22.9117 18.2478C22.9117 18.2478 24.2916 19.7484 25.1697 19.6733C27.0262 19.2982 28.7824 18.5479 30.3629 17.4975C31.0403 16.9473 30.9149 14.9465 30.9149 14.9465L22.9117 18.2478Z" fill="#4C5EFD"></path> <path fill-rule="evenodd" clip-rule="evenodd" d="M31.4166 14.0962L21.9333 18.0477L22.4852 18.6479C22.9368 19.1231 23.4386 19.5483 24.0156 19.8984C24.3668 20.1485 24.8184 20.2485 25.2449 20.2235C27.2018 19.8234 29.0834 19.0731 30.7392 17.9727C31.0654 17.6726 31.2661 17.2724 31.3414 16.8472C31.4668 16.222 31.517 15.5718 31.4919 14.9215L31.4166 14.0962ZM22.9117 18.2478C22.9117 18.2478 24.2916 19.7483 25.1697 19.6733C27.0262 19.2982 28.7824 18.5479 30.3629 17.4975C31.0403 16.9473 30.9149 14.9465 30.9149 14.9465L22.9117 18.2478Z" fill="#2A2941"></path> <path fill-rule="evenodd" clip-rule="evenodd" d="M35.506 11.5452L16.9909 19.4232L29.5099 49.3345L48.0752 41.3815L35.506 11.5452ZM19.0481 20.2235L34.6781 13.646L46.018 40.5312L30.388 47.2837L19.0983 20.2735L19.0481 20.2235Z" fill="#2A2941"></path> <path fill-rule="evenodd" clip-rule="evenodd" d="M39.3947 39.4559L33.2732 42.0068L32.1442 39.0807L41.6275 35.0042L41.201 34.0288L30.7643 38.5305L32.7212 43.3824L39.8212 40.4312L39.3947 39.4559Z" fill="#2A2941"></path> <path fill-rule="evenodd" clip-rule="evenodd" d="M40.7494 32.0281L43.6597 30.7776L46.1434 32.5032L44.1865 35.8795L40.348 35.0042L40.7494 32.0281Z" fill="#A694FE"></path> <path fill-rule="evenodd" clip-rule="evenodd" d="M43.735 30.0522L40.1724 31.5778L39.5954 35.4543L44.4876 36.5797L46.9713 32.3031L43.735 30.0522ZM41.3516 32.4782L43.6095 31.5278L45.2653 32.7033L43.8353 35.1292L41.0254 34.4789L41.3516 32.4782Z" fill="#2A2941"></path> <path fill-rule="evenodd" clip-rule="evenodd" d="M38.4162 38.3304L40.8247 37.28L42.907 38.7306L41.2763 41.5316L38.0399 40.7814L38.4162 38.3304Z" fill="#FEC34E"></path> <path fill-rule="evenodd" clip-rule="evenodd" d="M40.9 36.5547L37.8141 37.8802L37.3124 41.2565L41.5774 42.2569L43.735 38.5304L40.9 36.5547ZM38.9933 38.8055L40.7745 38.0302L42.054 38.9306L40.9251 40.8313L38.7424 40.3311L38.9933 38.8055Z" fill="#2A2941"></path> <path fill-rule="evenodd" clip-rule="evenodd" d="M32.1191 30.9776L34.076 30.2273L35.6566 31.4528L34.2767 33.6286L31.6926 32.9283L32.1191 30.9776Z" fill="#2A2941"></path> <path d="M26.5746 18.1477L28.1802 17.4724" stroke="#2A2941" stroke-width="1.8587" stroke-miterlimit="10" stroke-linecap="square"></path> <path d="M25.4707 26.4507L24.3417 23.6997C24.2414 23.5246 24.2414 23.2995 24.2916 23.0995C24.3167 23.0244 24.3668 22.9494 24.417 22.8994C24.4672 22.8494 24.5424 22.7993 24.6177 22.7743C24.693 22.7493 24.7682 22.7243 24.8686 22.7243C24.9439 22.7243 25.0442 22.7493 25.1195 22.7743C25.2951 22.8744 25.4205 23.0494 25.4958 23.2245L26.6248 26.0506C26.7251 26.3257 26.8757 26.5758 27.0764 26.8009C27.2269 26.9759 27.4276 27.101 27.6534 27.151C27.9544 27.176 28.2304 27.151 28.5064 27.0259C28.682 26.9759 28.8576 26.8759 29.0081 26.7258C29.1587 26.6008 29.259 26.4257 29.3343 26.2507C29.4096 25.8255 29.3594 25.4003 29.1587 25.0252L28.0297 22.1991C27.9294 22.024 27.9043 21.799 27.9544 21.5989C27.9795 21.5239 28.0297 21.4488 28.0799 21.3738C28.1301 21.3238 28.2053 21.2738 28.3057 21.2488C28.3809 21.2237 28.4562 21.1987 28.5566 21.1987C28.6318 21.1987 28.7322 21.2237 28.8074 21.2488C28.9831 21.3488 29.1336 21.5239 29.1838 21.6989L30.3127 24.45C30.4633 24.8001 30.5887 25.2003 30.6389 25.5754C30.664 25.9255 30.6138 26.2507 30.4633 26.5758C30.3378 26.8509 30.1371 27.101 29.9113 27.3011C29.6354 27.5261 29.3343 27.7012 29.0081 27.8513C28.6318 28.0013 28.2304 28.1264 27.8039 28.1764C27.4778 28.2014 27.1516 28.1764 26.8255 28.0513C26.5244 27.9263 26.2735 27.7262 26.0728 27.4761C25.8219 27.151 25.6212 26.8009 25.4707 26.4257V26.4507Z" fill="#2A2941"></path> <path d="M31.8933 25.3003L32.395 22.8994L30.5887 21.674C30.4382 21.5739 30.3127 21.4739 30.1873 21.3488C30.112 21.2488 30.0368 21.1488 29.9615 21.0487C29.9364 20.9987 29.9113 20.9237 29.9113 20.8737C29.9113 20.8236 29.9364 20.7486 29.9615 20.6986C30.0368 20.5735 30.1371 20.4735 30.2626 20.4235C30.3378 20.3985 30.4131 20.3735 30.4883 20.3735C30.5636 20.3735 30.6389 20.3985 30.7141 20.4235C30.9148 20.5235 31.1155 20.6486 31.3163 20.7986L32.7714 21.824L33.0975 20.0483C33.1226 19.9233 33.1477 19.7982 33.1728 19.6732C33.1728 19.5732 33.1979 19.4731 33.248 19.3981C33.2731 19.3231 33.3233 19.273 33.3735 19.198C33.4237 19.148 33.4989 19.098 33.5742 19.073C33.6495 19.048 33.6996 19.0229 33.7749 19.0229C33.8502 19.0229 33.9254 19.048 33.9756 19.073C34.0258 19.098 34.076 19.123 34.1261 19.173C34.1763 19.223 34.2014 19.273 34.2265 19.3231C34.3018 19.5982 34.3018 19.8733 34.2265 20.1484L33.7749 22.2992L35.782 23.6747C35.9325 23.7497 36.0579 23.8748 36.1834 23.9748C36.2837 24.0499 36.3339 24.1499 36.3841 24.2499C36.4092 24.35 36.4092 24.425 36.3841 24.525C36.359 24.6251 36.3088 24.7001 36.2586 24.8001C36.1834 24.8752 36.1081 24.9252 36.0328 24.9752C35.9325 25.0002 35.8321 25.0002 35.7067 24.9752C35.6063 24.9752 35.5311 24.9252 35.4558 24.8752L35.0293 24.5751L33.3484 23.4496L32.947 25.5254L32.8717 25.8756C32.8717 25.9506 32.8466 26.0256 32.7965 26.0756C32.7714 26.1507 32.7212 26.2257 32.671 26.2757C32.5958 26.3507 32.5205 26.3757 32.4452 26.4258C32.37 26.4508 32.3198 26.4758 32.2445 26.4758C32.1693 26.4758 32.094 26.4508 32.0438 26.4258C31.9936 26.4008 31.9184 26.3507 31.8682 26.3007C31.818 26.2507 31.7929 26.1757 31.7678 26.1257C31.7177 25.8756 31.7678 25.5754 31.8933 25.3003Z" fill="#2A2941"></path> </g></svg>